SplineFontDB: 3.2
FontName: BogFace
FullName: BogFace
FamilyName: BogFace
Weight: Regular
Copyright: Copyright (c) 2023, alifeee
UComments: "2023-12-3: Created with FontForge (http://fontforge.org)"
Version: 001.000
ItalicAngle: 0
UnderlinePosition: -89
UnderlineWidth: 43
Ascent: 820
Descent: 204
InvalidEm: 0
LayerCount: 2
Layer: 0 0 "Back" 1
Layer: 1 0 "Fore" 0
XUID: [1021 879 838727349 2897]
StyleMap: 0x0000
FSType: 0
OS2Version: 0
OS2_WeightWidthSlopeOnly: 0
OS2_UseTypoMetrics: 1
CreationTime: 1701627778
ModificationTime: 1703034219
PfmFamily: 17
TTFWeight: 400
TTFWidth: 5
LineGap: 106
VLineGap: 0
OS2TypoAscent: 0
OS2TypoAOffset: 1
OS2TypoDescent: 0
OS2TypoDOffset: 1
OS2TypoLinegap: 90
OS2WinAscent: 0
OS2WinAOffset: 1
OS2WinDescent: 0
OS2WinDOffset: 1
HheadAscent: 0
HheadAOffset: 1
HheadDescent: 0
HheadDOffset: 1
OS2Vendor: 'PfEd'
Lookup: 258 0 0 "kerning lookup" { "kerning" [183,18,2] } ['kern' ('DFLT' <'dflt' > 'latn' <'dflt' > ) ]
MarkAttachClasses: 1
DEI: 91125
LangName: 1033
Encoding: ISO8859-1
UnicodeInterp: none
NameList: AGL For New Fonts
DisplaySize: -48
AntiAlias: 1
FitToEm: 0
WidthSeparation: 183
WinInfo: 22 22 6
BeginPrivate: 0
EndPrivate
Grid
56.05859375 7.5654296875 m 0
 49.58984375 7.5654296875 6.3359375 33.3291015625 31.8515625 89.0537109375 c 0
 40.0576171875 106.975585938 43.7734375 115.091796875 72.3564453125 119.900390625 c 0
 94.48046875 123.623046875 82.0751953125 130.098632812 95.0458984375 135.470703125 c 0
 138.284179688 153.393554688 147.860351562 22.6103515625 98.08203125 8.38671875 c 0
 86.162109375 4.9814453125 90.5068359375 3.7138671875 81.384765625 1.173828125 c 0
 69.46875 -2.1455078125 63.431640625 7.5654296875 56.05859375 7.5654296875 c 0
-2.8935546875 492.779296875 m 25
 862.122070312 492.779296875 l 1049
EndSplineSet
TeXData: 1 0 0 288164 144082 96054 432036 1048576 96054 783286 444596 497025 792723 393216 433062 380633 303038 157286 324010 404750 52429 2506097 1059062 262144
BeginChars: 256 72

StartChar: A
Encoding: 65 65 0
Width: 681
VWidth: 990
Flags: W
HStem: 7 21G<1 207.248 488.171 684> 212 174<316.108 425>
LayerCount: 2
Fore
SplineSet
287 374 m 1049
287 377 m 25
 430 386 l 25
 360 588 l 25
 287 377 l 25
251 784 m 1
 482 775 l 1
 684 7 l 1
 495 7 l 1
 425 212 l 1
 255 209 l 1
 202 7 l 1
 1 7 l 1
 251 784 l 1
EndSplineSet
Validated: 1
EndChar

StartChar: B
Encoding: 66 66 1
Width: 545
VWidth: 990
Flags: W
HStem: 13 144<173 293.144> 683 103<172 270.358>
VStem: 26 145<517 683> 45 128<157 301.379> 287 143<537.435 667.026> 334 198<192.82 303.756>
LayerCount: 2
Fore
SplineSet
173 157 m 17xd4
 268 160 337 171 334 248 c 0
 331 320 283 337 173 328 c 9
 173 157 l 17xd4
171 517 m 17xe8
 246 517 287 527 287 597 c 0
 286 698 224 683 172 683 c 9
 171 517 l 17xe8
26 784 m 1
 274 786 l 2
 345 787 429 707 430 620 c 0xe8
 431 527 395 502 369 466 c 1
 482 414 533 415 532 273 c 0
 531 121 370 16 199 13 c 2
 45 9 l 25xd4
 26 784 l 1
EndSplineSet
Validated: 33
EndChar

StartChar: C
Encoding: 67 67 2
Width: 590
VWidth: 990
Flags: W
HStem: -1 190<254.878 364.964> 635 163<278.208 395.077>
VStem: 14 162<291.815 503.813>
LayerCount: 2
Back
Fore
SplineSet
452 301 m 17
 407 249 388 189 308 189 c 0
 238 189 177 286 176 401 c 0
 175 488 237 636 348 635 c 0
 405 634 434 617 460 588 c 9
 545 674 l 17
 439 754 386 797 304 798 c 0
 252 799 147 774 98 698 c 0
 37 604 14 424 14 326 c 0
 14 213 104 -1 282 -1 c 0
 390 -1 511 130 587 220 c 1
 452 301 l 17
EndSplineSet
Validated: 41
EndChar

StartChar: D
Encoding: 68 68 3
Width: 478
VWidth: 990
Flags: W
VStem: 16 161<217 409> 16 147<400 592> 325 140<339.701 538.992>
LayerCount: 2
Back
Fore
SplineSet
163 592 m 25x60
 251 592 l 18
 288 592 324 516 325 456 c 0
 328 330 241 217 208 217 c 10
 177 217 l 1xa0
 163 592 l 25x60
16 6 m 25x60
 199 7 l 2
 416 8 465 188 465 340 c 10
 465 480 l 18
 465 702 364 792 226 792 c 10
 16 792 l 1
 16 6 l 25x60
EndSplineSet
Validated: 41
EndChar

StartChar: E
Encoding: 69 69 4
Width: 551
VWidth: 990
Flags: W
HStem: 11 224<233 419.277>
LayerCount: 2
Back
Fore
SplineSet
1201 940 m 1053
233 284 m 9
 233 235 l 1
 305 224 378 226 440 235 c 1
 419 28 l 26
 418 8 400 -6 379 -5 c 0
 347 -4 335 11 303 11 c 2
 9 9 l 25
 47 797 l 17
 216 781 382 777 543 797 c 1
 519 728 515 661 506 594 c 9
 247 572 l 17
 246 527 245 480 234 440 c 1
 381 440 l 17
 357 388 356 290 356 290 c 2
 355 285 351 269 340 269 c 0
 326 269 326 287 315 286 c 2
 312 289 254 290 233 284 c 9
EndSplineSet
Validated: 33
EndChar

StartChar: F
Encoding: 70 70 5
Width: 563
VWidth: 990
Flags: W
HStem: 304 169<251 339.848> 559 235<270.166 547.638>
VStem: 16 210<17.875 305>
LayerCount: 2
Back
Fore
SplineSet
29 791 m 29
 548 794 l 29
 551 592 l 22
 552 561 485 558 440 559 c 4
 373 560 335 567 267 572 c 29
 251 473 l 29
 292 474 351 498 358 478 c 4
 372 438 359 377 349 340 c 4
 340 316 311 304 274 304 c 4
 258 304 248 304 232 305 c 29
 226 36 l 30
 226 5 185 4 154 1 c 28
 123 -2 108 14 76 17 c 28
 52 18 40 16 16 15 c 29
 29 791 l 29
EndSplineSet
Validated: 33
EndChar

StartChar: G
Encoding: 71 71 6
Width: 619
VWidth: 990
Flags: W
HStem: 10 173<257.807 359.487> 618 180<290.406 442.632>
VStem: 9 172<280.713 491.859>
LayerCount: 2
Back
Fore
SplineSet
482 582 m 13
 594 701 l 5
 503 755 418 801 295 798 c 4
 41 793 10 466 9 406 c 4
 6 192 99 9 293 10 c 4
 509 11 602 150 592 321 c 30
 591 430 l 5
 310 435 l 5
 285 270 l 29
 413 269 l 5
 406 233 355 182 309 183 c 4
 227 186 178 300 181 395 c 4
 182 485 240 621 381 618 c 4
 456 617 458 614 482 582 c 13
EndSplineSet
Validated: 41
EndChar

StartChar: H
Encoding: 72 72 7
Width: 565
VWidth: 990
Flags: W
HStem: 279 177<238.088 383>
VStem: 9 229<513.173 777.332> 30 203<6 268.827> 386 162<6 272.088> 396 139<481.414 790>
LayerCount: 2
Back
Fore
SplineSet
243 456 m 9xc0
 389 455 l 17
 380 565 365 673 396 790 c 1
 445 781 490 787 535 790 c 1xc8
 560 528 534 260 548 6 c 1
 386 6 l 1
 383 274 l 1
 228 279 l 25
 233 5 l 1
 30 6 l 25xb0
 9 776 l 1
 86 805 156 797 238 794 c 1
 231 677 214 554 243 456 c 9xc0
EndSplineSet
Validated: 33
EndChar

StartChar: I
Encoding: 73 73 8
Width: 469
VWidth: 990
Flags: W
HStem: 9 178<309.395 445> 643 174<31.2036 163> 649 149<374.669 456.129>
VStem: 163 168<540.648 641>
LayerCount: 2
Back
Fore
SplineSet
163 641 m 25xd0
 130 179 l 25
 49 202 l 18
 29 207 9 198 9 183 c 10
 9 41 l 17
 159 10 299 6 445 9 c 9
 451 174 l 18
 451 177 448 186 437 187 c 10
 304 194 l 17
 310 348 303 501 331 649 c 9
 376 650 438 638 449 653 c 0
 465 674 471 785 447 792 c 0
 441 793 416 797 396 798 c 26xb0
 49 817 l 18
 38 818 30 795 29 785 c 10
 11 654 l 18
 10 643 20 643 29 643 c 10
 163 641 l 25xd0
EndSplineSet
Validated: 41
EndChar

StartChar: J
Encoding: 74 74 9
Width: 606
VWidth: 990
Flags: W
LayerCount: 2
Back
Fore
SplineSet
202 274 m 1
 147 265 88 265 37 245 c 1
 52 84 142 8 274 5 c 0
 356 2 447 96 444 148 c 2
 444 148 448 492 420 650 c 1
 485 649 542 657 591 668 c 9
 594 807 l 17
 385 786 40 786 40 786 c 2
 30 786 8 754 9 739 c 2
 15 649 l 1
 95 664 175 656 255 649 c 1
 269 288 l 18
 270 234 300 153 259 154 c 0
 207 155 217 222 202 274 c 1
EndSplineSet
Validated: 41
EndChar

StartChar: K
Encoding: 75 75 10
Width: 680
VWidth: 990
Flags: W
HStem: 9 21G<35.6119 249>
VStem: 21 209<637.065 782>
LayerCount: 2
Back
Fore
SplineSet
21 782 m 25
 230 786 l 25
 239 599 l 25
 373 792 l 25
 537 792 l 25
 328 412 l 1
 418 332 669 54 669 53 c 2
 669 22 l 1
 465 16 l 1
 424 109 340 201 232 265 c 9
 249 9 l 17
 177 18 105 19 36 9 c 9
 21 782 l 25
EndSplineSet
Validated: 33
EndChar

StartChar: L
Encoding: 76 76 11
Width: 595
VWidth: 990
Flags: W
HStem: 2 217<197.856 558.973>
VStem: 16 168<455.349 779>
LayerCount: 2
Back
Fore
SplineSet
16 782 m 9
 184 779 l 17
 183 592 155 406 192 217 c 1
 317 214 437 214 558 219 c 1
 579 142 585 70 576 2 c 1
 400 18 209 34 28 9 c 1
 37 264 13 525 16 782 c 9
EndSplineSet
Validated: 33
EndChar

StartChar: M
Encoding: 77 77 12
Width: 1173
VWidth: 990
Flags: W
LayerCount: 2
Back
Fore
SplineSet
247 17 m 1
 329 183 359 367 449 544 c 1
 511 473 540 387 579 301 c 9
 744 309 l 17
 744 401 789 462 841 523 c 1
 865 350 889 176 928 5 c 9
 1161 13 l 17
 1116 267 1050 521 986 776 c 9
 739 790 l 17
 710 720 674 656 637 592 c 1
 592 641 585 718 561 782 c 1
 474 793 389 798 304 799 c 1
 181 521 148 266 15 17 c 1
 84 -12 157 18 247 17 c 1
EndSplineSet
Validated: 41
EndChar

StartChar: N
Encoding: 78 78 13
Width: 638
VWidth: 990
Flags: W
VStem: 16 180<13.9021 350.266> 444 181<609.983 765.503>
LayerCount: 2
Back
Fore
SplineSet
211 374 m 1
 263 263 309 108 396 -8 c 9
 602 7 l 17
 623 258 591 478 625 765 c 1
 565 770 500 787 444 776 c 1
 412 611 418 429 394 258 c 1
 343 416 287 611 250 784 c 1
 173 787 97 785 15 799 c 1
 49 567 9 430 16 16 c 1
 85 -8 131 21 196 0 c 1
 191 127 191 247 211 374 c 1
EndSplineSet
Validated: 41
EndChar

StartChar: O
Encoding: 79 79 14
Width: 616
VWidth: 990
Flags: W
VStem: 16 223<247.025 512.159> 385 213<284.741 500.206>
LayerCount: 2
Back
Fore
SplineSet
239 377 m 24
 240 306 239 213 316 212 c 0
 376 211 386 315 385 387 c 24
 384 457 369 546 309 549 c 0
 253 552 238 449 239 377 c 24
16 399 m 0
 15 545 91 787 300 790 c 0
 503 793 597 593 598 402 c 0
 599 308 510 6 298 9 c 0
 43 12 17 277 16 399 c 0
EndSplineSet
Validated: 33
EndChar

StartChar: P
Encoding: 80 80 15
Width: 505
VWidth: 990
Flags: W
HStem: 7 21G<41 199.529>
VStem: 24 179<519.529 672.209> 41 158<16 277.95>
LayerCount: 2
Back
Fore
SplineSet
203 521 m 17xc0
 288 512 322 538 319 594 c 0
 316 648 279 695 202 666 c 9
 203 521 l 17xc0
41 16 m 25xa0
 24 750 l 2xc0
 23 784 156 794 238 794 c 0
 421 794 484 755 487 620 c 0
 490 497 326 380 209 385 c 9
 199 7 l 1
 41 16 l 25xa0
EndSplineSet
Validated: 33
EndChar

StartChar: Q
Encoding: 81 81 16
Width: 759
VWidth: 990
Flags: W
HStem: 660 132<253.214 360.359>
VStem: 11 191<307.806 562.862> 440 199<358.736 562.429>
LayerCount: 2
Back
Fore
SplineSet
421 356 m 1
 441 389 441 413 440 452 c 0
 439 528 404 655 298 660 c 0
 221 663 202 507 202 447 c 0
 202 347 244 218 285 217 c 0
 324 216 338 225 349 240 c 1
 317 285 288 307 257 339 c 1
 290 365 284 402 318 426 c 1
 363 415 389 381 421 356 c 1
700 142 m 1049
612 -3 m 1
 582 42 546 82 495 121 c 1
 470 74 350 5 293 5 c 0
 121 4 16 203 11 399 c 0
 5 621 129 792 300 792 c 0
 574 792 633 673 639 430 c 0
 640 343 636 282 587 222 c 1
 652 198 699 149 751 103 c 1
 694 75 657 34 612 -3 c 1
EndSplineSet
Validated: 33
EndChar

StartChar: R
Encoding: 82 82 17
Width: 545
VWidth: 990
Flags: W
HStem: 675 111<173 293.748>
VStem: 16 177<19.9554 208> 25 147<513 675> 318 197<559.788 647.937>
LayerCount: 2
Back
Fore
SplineSet
172 513 m 1xb0
 224 518 l 18
 245 519 318 560 318 599 c 0
 318 638 279 675 251 675 c 10
 173 675 l 25
 172 513 l 1xb0
16 15 m 9xd0
 25 786 l 25xb0
 350 786 l 2
 391 786 515 757 515 579 c 0
 515 453 396 351 274 358 c 1
 350 235 415 239 538 21 c 1
 469 -8 391 22 316 25 c 1
 271 85 232 159 191 208 c 1
 200 117 192 78 193 21 c 1
 139 10 84 -6 16 15 c 9xd0
EndSplineSet
Validated: 33
EndChar

StartChar: S
Encoding: 83 83 18
Width: 555
VWidth: 990
Flags: W
HStem: 5 149<173.081 325.832> 326 134<223.989 354.226> 642 148<230.415 365.396>
VStem: 76 126<479.275 613.373>
LayerCount: 2
Back
Fore
SplineSet
9 100 m 1
 117 208 l 17
 173 179 192 155 257 154 c 0
 317 153 374 192 365 261 c 0
 356 354 312 327 232 326 c 0
 146 325 77 412 76 518 c 0
 75 672 182 793 323 790 c 0
 370 789 404 786 436 750 c 26
 510 666 l 25
 404 576 l 25
 374 610 l 26
 353 636 338 642 293 642 c 0
 228 642 201 605 202 553 c 0
 203 497 217 461 278 460 c 0
 334 459 338 472 377 473 c 0
 459 474 549 375 548 273 c 0
 547 127 437 8 264 5 c 0
 187 4 165 15 141 26 c 10
 9 100 l 1
EndSplineSet
Validated: 33
EndChar

StartChar: T
Encoding: 84 84 19
Width: 666
VWidth: 990
Flags: W
HStem: 594 161<16 184.894>
VStem: 242 188<242.411 591.065>
LayerCount: 2
Back
Fore
SplineSet
242 9 m 17
 210 212 243 403 249 599 c 9
 16 594 l 25
 9 755 l 17
 79 786 572 788 649 782 c 1
 633 722 655 661 658 599 c 1
 573 602 498 598 429 588 c 9
 430 17 l 25
 242 9 l 17
EndSplineSet
Validated: 33
EndChar

StartChar: U
Encoding: 85 85 20
Width: 595
VWidth: 990
Flags: W
VStem: 9 156<635.466 782> 15 178<388.498 699.581> 413 163<450.715 781>
LayerCount: 2
Back
Fore
SplineSet
9 785 m 25xa0
 15 425 l 18
 16 302 120 14 267 11 c 10
 373 9 l 18
 483 8 575 284 576 377 c 10
 582 784 l 25
 413 781 l 1
 416 499 362 231 328 232 c 0
 235 233 190 424 193 620 c 1x60
 169 675 166 730 165 782 c 1
 9 785 l 25xa0
EndSplineSet
Validated: 41
EndChar

StartChar: V
Encoding: 86 86 21
Width: 778
VWidth: 990
Flags: W
LayerCount: 2
Back
Fore
SplineSet
1 762 m 5
 92 469 210 250 320 11 c 9
 496 7 l 17
 613 269 598 357 761 791 c 1
 701 775 623 778 551 775 c 1
 536 602 470 444 413 286 c 1
 343 444 251 593 199 761 c 5
 139 764 88 771 1 762 c 5
EndSplineSet
Validated: 41
EndChar

StartChar: W
Encoding: 87 87 22
Width: 1223
VWidth: 990
Flags: W
LayerCount: 2
Back
Fore
SplineSet
11 757 m 1
 96 488 222 259 328 9 c 9
 518 22 l 17
 534 104 568 181 607 253 c 1
 635 168 659 75 696 13 c 9
 870 15 l 17
 1008 263 1111 514 1209 765 c 9
 962 782 l 17
 893 628 841 456 754 318 c 1
 682 408 648 487 614 577 c 1
 546 497 494 416 442 334 c 1
 378 482 296 623 214 769 c 1
 145 766 72 786 11 757 c 1
EndSplineSet
Validated: 41
EndChar

StartChar: X
Encoding: 88 88 23
Width: 829
VWidth: 990
Flags: W
LayerCount: 2
Back
Fore
SplineSet
15 30 m 1
 214 406 l 17
 173 527 78 632 26 762 c 1
 75 777 147 770 232 754 c 1
 281 656 352 590 421 519 c 1
 473 613 531 708 607 790 c 1
 676 769 741 778 810 769 c 1
 754 652 676 533 591 422 c 1
 624 281 684 145 745 15 c 1
 681 18 617 10 553 25 c 1
 506 107 469 193 405 257 c 1
 354 157 270 97 218 2 c 1
 138 23 47 6 15 30 c 1
EndSplineSet
Validated: 33
EndChar

StartChar: Y
Encoding: 89 89 24
Width: 737
VWidth: 990
Flags: W
HStem: 492 21G<346.5 392.5>
LayerCount: 2
Back
Fore
SplineSet
9 781 m 1
 96 631 187 482 312 341 c 1
 328 230 331 126 334 16 c 1
 398 15 475 -8 521 16 c 1
 505 123 483 232 503 334 c 1
 532 447 668 658 730 760 c 1
 643 765 552 750 465 771 c 1
 441 676 411 582 374 492 c 1
 319 585 249 679 216 770 c 1
 145 771 74 792 9 781 c 1
EndSplineSet
Validated: 41
EndChar

StartChar: Z
Encoding: 90 90 25
Width: 621
VWidth: 990
Flags: W
HStem: 9 21G<39.5 127.5> 22 192<318.131 577> 573 218<15 119.413 190.946 377>
LayerCount: 2
Back
Fore
SplineSet
37 9 m 1xa0
 42 61 39 122 34 178 c 1
 175 280 271 430 377 567 c 1
 15 573 l 1
 11 791 l 1
 205 776 392 776 576 786 c 1
 617 704 605 628 608 551 c 1
 544 440 414 331 316 214 c 9
 577 217 l 1
 578 155 591 84 594 22 c 1x60
 397 28 218 18 37 9 c 1xa0
EndSplineSet
Validated: 33
EndChar

StartChar: m
Encoding: 109 109 26
Width: 573
VWidth: 987
Flags: W
VStem: 22 119<40.25 271.444> 311 77<266.276 337.364> 471 82<13.7556 393.99>
LayerCount: 2
Back
Fore
SplineSet
125 421 m 0
 128 421 187 472 195 472 c 0
 203 472 221 489 262 487 c 0
 284 486 308 477 318 467 c 0
 336 451 338 402 341 402 c 0
 348 402 352 442 403 471 c 0
 419 480 463 504 504 483 c 0
 529 470 534 456 537 394 c 0
 539 360 545 347 552 254 c 0
 554 218 553 18 553 16 c 0
 553 13 552 11 544 11 c 0
 534 11 478 8 473 3 c 0
 468 -2 458 6 460 13 c 0
 463 27 473 178 471 193 c 0
 469 211 471 371 460 388 c 0
 435 426 388 305 388 277 c 0
 388 269 378 266 344 265 c 2
 311 264 l 1
 291 302 290 367 270 380 c 0
 253 391 232 389 208 372 c 0
 184 356 173 335 168 297 c 0
 167 292 148 187 148 186 c 0
 148 185 138 53 146 30 c 0
 152 15 141 23 141 14 c 0
 141 12 140 9 139 9 c 0
 138 9 137 8 137 6 c 0
 137 -3 92 14 76 6 c 0
 68 1 38 -4 33 -2 c 0
 23 1 28 253 22 326 c 0
 20 359 12 473 22 483 c 0
 25 486 91 488 100 494 c 0
 114 501 116 499 121 475 c 0
 127 444 123 421 125 421 c 0
EndSplineSet
Validated: 33
EndChar

StartChar: w
Encoding: 119 119 27
Width: 751
VWidth: 987
InSpiro: 1
Flags: W
VStem: 318.448 147.632<216.802 298.965>
LayerCount: 2
Back
Fore
SplineSet
368.408203125 98.888671875 m 0
 368.408203125 96.9560546875 345.926757812 65.3134765625 345.926757812 61.4189453125 c 0
 345.926757812 55.8515625 306.708984375 19.3271484375 296.96484375 15.8212890625 c 0
 295.607421875 15.3330078125 207.934570312 -14.2431640625 153.08203125 5.1298828125 c 0
 123.61328125 15.5390625 105.4765625 37.6884765625 70.171875 106.381835938 c 0
 55.6494140625 134.638671875 36.17578125 172.528320312 36.17578125 239.775390625 c 0
 36.17578125 255.793945312 14.431640625 435.583007812 13.7177734375 449.357421875 c 0
 11.0009765625 501.834960938 11.0009765625 501.834960938 10.3212890625 503.5625 c 0
 8.07421875 509.287109375 50.2607421875 510.154296875 61.65625 504.349609375 c 0
 68.3994140625 500.915039062 87.2548828125 501.928710938 92.6298828125 506.015625 c 0
 104.331054688 514.911132812 117.491210938 506.810546875 119.749023438 489.325195312 c 0
 125.708984375 443.180664062 124.970703125 335.67578125 128.565429688 317.462890625 c 0
 145.97265625 229.206054688 145.97265625 229.206054688 147.3359375 226.286132812 c 0
 149.279296875 222.122070312 152.633789062 213.796875 154.881835938 207.551757812 c 0
 173.713867188 155.272460938 227.474609375 157.740234375 238.263671875 161.315429688 c 0
 252.751953125 166.11328125 275.006835938 181.974609375 283.1640625 193.3125 c 0
 287.395507812 199.197265625 315.90625 249.57421875 308.08203125 259.259765625 c 0
 306.266601562 261.5078125 306.3046875 262.5078125 308.20703125 262.5078125 c 0
 311.78515625 262.5078125 318.448242188 275.997070312 318.448242188 283.241210938 c 0
 318.448242188 299.848632812 326.407226562 299.719726562 364.661132812 299.1015625 c 0
 401.885742188 298.502929688 456.583984375 303.530273438 457.461914062 303.224609375 c 0
 463.180664062 301.237304688 466.080078125 258.090820312 466.080078125 255.013671875 c 0
 466.080078125 248.153320312 476.252929688 205.552734375 480.516601562 194.561523438 c 0
 487.068359375 177.672851562 510.76953125 142.6640625 531.181640625 170.08203125 c 0
 564.374023438 214.649414062 637.412109375 489.59375 622.454101562 504.5625 c 0
 616.560546875 510.456054688 737.956054688 508.16015625 742.607421875 503.688476562 c 0
 745.236328125 501.16015625 745.30859375 496.568359375 742.982421875 479.583007812 c 0
 733.369140625 409.350585938 733.369140625 409.350585938 729.946289062 398.3984375 c 0
 708.665039062 330.302734375 702.42578125 272.243164062 693.318359375 251.266601562 c 0
 689.743164062 243.033203125 688.63671875 230.249023438 675.536132812 198.809570312 c 0
 670.33203125 186.318359375 663.203125 168.555664062 659.494140625 158.840820312 c 0
 641.666015625 112.12890625 640.237304688 109.7734375 604.666015625 68.4140625 c 0
 581.892578125 41.9345703125 564.112304688 25.1982421875 558.755859375 25.1982421875 c 0
 554.883789062 25.1982421875 553.639648438 18.6298828125 542.14453125 16.3310546875 c 0
 527.2265625 13.34765625 482.318359375 42.255859375 481.192382812 44.30859375 c 0
 480.623046875 45.345703125 436.043945312 95.046875 405.870117188 135.610351562 c 0
 401.037109375 142.104492188 395.684570312 147.387695312 393.887695312 147.434570312 c 0
 391.430664062 147.499023438 368.408203125 103.634765625 368.408203125 98.888671875 c 0
  Spiro
    368.408 98.8895 o
    362.59 89.1965 o
    351.745 72.419 o
    345.927 61.4193 o
    335.416 47.9214 o
    313.967 27.9456 o
    296.966 15.8211 o
    271.295 8.53847 o
    214.399 -0.821284 o
    153.081 5.1306 o
    126.36 20.7199 o
    100.782 51.9561 o
    70.171 106.382 o
    54.9184 138.543 o
    41.7522 181.633 o
    36.176 239.776 o
    30.5219 298.082 o
    19.8473 392.547 o
    13.7174 449.358 o
    11.7819 486.327 o
    10.8996 500.41 o
    10.3215 503.563 o
    20.0804 507.599 o
    42.8069 507.996 o
    61.6557 504.35 o
    71.4768 502.348 o
    83.7206 503.006 o
    92.6306 506.016 o
    104.349 509.528 o
    114.323 503.39 o
    119.749 489.325 o
    123.881 428.378 o
    126.008 359.799 o
    128.564 317.463 o
    140.857 255.287 o
    145.735 231.598 o
    147.337 226.286 o
    149.653 220.973 o
    152.361 214.251 o
    154.882 207.552 o
    182.438 171.557 o
    216.066 160.093 o
    238.263 161.314 o
    254.513 169.214 o
    271.132 181.057 o
    283.164 193.313 o
    293.229 210.846 o
    306.049 239.192 o
    308.083 259.26 o
    306.885 261.099 o
    306.926 262.166 o
    308.208 262.508 o
    312.447 266.266 o
    316.592 274.656 o
    318.449 283.24 o
    321.921 294.864 o
    335.7 298.956 o
    364.662 299.102 o
    405.029 299.97 o
    441.313 302.16 o
    457.462 303.225 o
    462.235 290.546 o
    465.118 268.418 o
    466.08 255.013 o
    468.87 238.757 o
    474.886 213.571 o
    480.517 194.562 o
    492.011 174.636 o
    510.45 160.484 o
    531.182 170.082 o
    572.875 273.137 o
    612.844 421.23 o
    622.454 504.563 o
    649.9 507.948 o
    708.135 507.209 o
    742.608 503.687 o
    744.388 500.094 o
    744.502 492.81 o
    742.982 479.582 o
    736.095 429.787 o
    732.709 408.694 o
    729.947 398.398 o
    713.029 334.708 o
    702.124 283.56 o
    693.318 251.267 o
    690.035 241.007 o
    685.167 224.533 o
    675.537 198.809 o
    669.895 185.068 o
    664.14 170.731 o
    659.495 158.841 o
    645.274 123.853 o
    630.711 99.8345 o
    604.666 68.4138 o
    583.851 45.4604 o
    567.965 30.5076 o
    558.755 25.1982 o
    555.286 23.4133 o
    550.694 19.6478 o
    542.144 16.3307 o
    519.989 21.7904 o
    494.158 35.493 o
    481.193 44.308 o
    468.14 59.3991 o
    438.649 94.1819 o
    405.869 135.61 o
    401.02 141.546 o
    396.715 145.795 o
    393.888 147.435 o
    386.201 135.952 o
    374.457 113.577 o
    0 0 z
  EndSpiro
EndSplineSet
Validated: 524321
EndChar

StartChar: o
Encoding: 111 111 29
Width: 393
VWidth: 824
Flags: W
HStem: 2 147<167.192 238.575>
VStem: 9 141<165.567 333.258> 250 123<158.016 338.041>
LayerCount: 2
Back
Fore
SplineSet
250 242 m 0
 253 288 238 359 197 351 c 0
 152 342 148 288 150 243 c 0
 152 189 166 148 211 149 c 0
 251 150 248 202 250 242 c 0
9 223 m 0
 11 358 90 490 204 487 c 0
 375 482 366 276 373 186 c 0
 373 179 374 174 375 168 c 0
 392 60 286 0 188 2 c 0
 74 5 8 109 9 223 c 0
EndSplineSet
Validated: 33
EndChar

StartChar: n
Encoding: 110 110 30
Width: 416
VWidth: 987
Flags: W
HStem: 8 471<27.5981 134.18>
VStem: 26 106<51.6548 63.236 125.518 269.117> 284 111<26.0454 322.329>
LayerCount: 2
Back
Fore
SplineSet
238 486 m 0
 268 499 314 492 332 483 c 0
 350 474 372 453 378 440 c 0
 384 427 387 397 390 379 c 0
 396 353 397 298 395 222 c 0
 395 220 390 32 389 30 c 0
 387 25 356 26 336 23 c 0
 290 14 282 15 284 25 c 0
 285 28 283 44 281 59 c 0
 278 87 277 93 284 153 c 0
 287 186 287 251 284 267 c 0
 283 270 281 279 281 287 c 0
 280 313 262 330 232 331 c 0
 219 331 217 328 197 317 c 0
 168 299 160 288 143 242 c 0
 134 217 132 178 137 146 c 0
 143 109 139 23 132 6 c 0
 126 -9 123 8 99 8 c 0
 63 8 37 -5 29 3 c 0
 19 13 26 323 26 326 c 0
 28 381 28 382 22 382 c 0
 14 382 14 384 14 406 c 0
 14 430 19 467 25 470 c 0
 32 475 94 469 107 476 c 0
 112 478 120 479 134 479 c 2
 155 478 l 1
 155 459 l 2
 156 445 158 440 160 440 c 0
 162 440 164 441 164 442 c 0
 166 449 207 473 238 486 c 0
EndSplineSet
Validated: 33
EndChar

StartChar: l
Encoding: 108 108 31
Width: 400
VWidth: 987
Flags: W
HStem: 755 20G<27 130>
VStem: 9 116<408.747 774.787>
LayerCount: 2
Back
Fore
SplineSet
125 478 m 0
 120 410 123 275 129 245 c 0
 135 215 148 179 158 162 c 0
 190 113 266 134 286 197 c 0
 292 217 297 218 315 201 c 0
 330 187 356 168 378 153 c 0
 393 143 393 137 378 122 c 0
 358 101 300 30 282 22 c 0
 238 2 238 2 199 2 c 0
 155 2 146 2 107 34 c 0
 51 80 41 132 38 155 c 0
 21 259 8 635 9 690 c 0
 9 707 10 732 10 743 c 0
 10 777 8 775 46 775 c 0
 64 775 87 775 96 775 c 2
 130 775 l 5
 130 775 125 481 125 478 c 0
EndSplineSet
Validated: 33
EndChar

StartChar: y
Encoding: 121 121 32
Width: 587
VWidth: 987
Flags: W
HStem: -212 109<145.65 369.71> 478 20G<148 153>
VStem: 15 135<300.725 493.008> 428 145<285.864 498>
LayerCount: 2
Back
Fore
SplineSet
204 188 m 0
 204 187 237 144 277 145 c 0
 352 146 406 267 416 323 c 0
 427 385 427 387 428 434 c 0
 429 465 429 482 434 498 c 1
 492 501 l 2
 571 503 572 502 573 499 c 0
 575 494 572 467 566 447 c 0
 534 326 574 -16 556 -46 c 0
 555 -47 537 -89 512 -118 c 0
 502 -131 504 -143 497 -146 c 0
 496 -147 447 -190 385 -210 c 0
 353 -219 289 -223 235 -216 c 0
 221 -215 199 -212 183 -212 c 0
 62 -212 7 -105 6 -103 c 0
 4 -97 -2 -86 -7 -79 c 0
 -21 -58 -20 -58 20 -38 c 0
 75 -10 55 -10 70 -10 c 0
 78 -10 81 -11 82 -17 c 0
 88 -41 110 -65 148 -83 c 0
 157 -88 167 -93 172 -96 c 0
 179 -102 181 -102 243 -103 c 0
 303 -104 356 -106 388 -62 c 0
 402 -44 409 -90 418 1 c 0
 420 29 421 75 419 77 c 0
 418 78 375 14 285 1 c 0
 230 -7 200 19 199 20 c 0
 198 21 146 42 116 76 c 0
 102 91 82 121 73 138 c 0
 53 177 31 351 24 379 c 0
 16 412 10 477 15 486 c 0
 18 493 39 504 41 499 c 0
 41 498 99 491 148 497 c 2
 158 498 l 1
 148 444 155 414 150 405 c 0
 147 398 157 296 163 282 c 0
 164 280 191 196 201 193 c 0
 203 192 204 189 204 188 c 0
EndSplineSet
Validated: 33
EndChar

StartChar: a
Encoding: 97 97 33
Width: 451
VWidth: 987
Flags: W
HStem: 395 89<161.884 284.991>
VStem: 320 114<460 521>
LayerCount: 2
Back
Fore
SplineSet
307 147 m 17
 232 136 148 136 131 305 c 0
 126 352 167 395 214 395 c 0
 259 395 269 383 297 365 c 1
 307 147 l 17
293 28 m 25
 297 -9 l 25
 413 -3 l 1
 436 135 405 101 434 527 c 1
 402 513 364 520 327 521 c 1
 320 460 l 1
 271 470 257 485 195 484 c 0
 71 481 14 382 15 255 c 0
 16 133 56 16 201 7 c 0
 257 4 257 20 293 28 c 25
EndSplineSet
Validated: 41
EndChar

StartChar: b
Encoding: 98 98 34
Width: 446
VWidth: 987
Flags: W
VStem: 328 102<206.75 318.926>
LayerCount: 2
Back
Fore
SplineSet
165 138 m 9
 168 329 l 17
 220 359 329 341 328 274 c 24
 327 191 261 146 165 138 c 9
168 440 m 1
 179 557 175 664 201 790 c 9
 60 793 l 25
 9 3 l 25
 125 -7 l 25
 130 29 l 17
 365 0 436 155 430 334 c 0
 427 427 381 497 301 495 c 0
 245 493 219 484 168 440 c 1
EndSplineSet
Validated: 41
EndChar

StartChar: c
Encoding: 99 99 35
Width: 377
VWidth: 987
Flags: W
LayerCount: 2
Back
Fore
SplineSet
285 153 m 0
 290 153 321 116 327 116 c 0
 333 116 343 98 351 96 c 0
 380 87 361 55 308 32 c 0
 302 30 294 25 292 24 c 0
 243 -8 144 0 107 25 c 0
 85 40 58 60 30 132 c 0
 16 168 11 196 9 251 c 0
 7 303 9 318 24 364 c 0
 58 472 117 486 118 486 c 4
 174 500 275 472 308 442 c 0
 325 427 341 418 341 412 c 0
 341 407 293 352 293 352 c 2
 279 336 l 1
 267 343 l 2
 234 363 182 362 157 336 c 0
 109 288 143 64 262 140 c 0
 273 147 284 153 285 153 c 0
EndSplineSet
Validated: 33
EndChar

StartChar: d
Encoding: 100 100 36
Width: 464
VWidth: 987
Flags: W
VStem: 13 104<163.553 316.683> 316 116<539.9 830.473>
LayerCount: 2
Back
Fore
SplineSet
334 831 m 0
 344 847 381 829 417 831 c 2
 430 832 l 1
 432 815 l 2
 433 807 443 15 420 2 c 0
 412 -1 321 1 316 6 c 0
 310 12 312 59 309 61 c 0
 301 66 240 -6 164 16 c 0
 70 44 26 116 13 215 c 0
 8 249 13 325 20 350 c 0
 42 427 63 449 130 464 c 0
 217 484 283 430 298 432 c 0
 304 433 305 436 305 483 c 0
 306 656 314 656 319 759 c 0
 320 793 326 820 334 831 c 0
232 349 m 0
 121 349 117 273 117 271 c 0
 116 231 112 156 181 135 c 0
 182 135 270 114 310 163 c 1
 311 164 304 215 297 332 c 1
 297 333 269 349 232 349 c 0
EndSplineSet
Validated: 33
EndChar

StartChar: e
Encoding: 101 101 37
Width: 481
VWidth: 987
Flags: W
HStem: 3 115<185.483 385.62> 193 112<179.115 337.336>
LayerCount: 2
Back
Fore
SplineSet
272 486 m 4
 500 478 450 237 422 222 c 0
 396 208 174 193 172 193 c 1
 173 178 l 2
 175 78 323 118 324 118 c 0
 396 143 396 144 411 155 c 0
 434 172 436 171 445 123 c 0
 453 84 468 70 465 55 c 0
 460 31 425 10 374 3 c 0
 353 0 194 2 179 5 c 0
 9 42 13 273 13 276 c 0
 31 390 130 492 272 486 c 4
179 295 m 0
 179 294 338 305 339 305 c 1
 322 497 134 377 179 295 c 0
EndSplineSet
Validated: 33
EndChar

StartChar: f
Encoding: 102 102 38
Width: 452
VWidth: 987
Flags: W
HStem: 339 120<194.301 292.77>
LayerCount: 2
Back
Fore
SplineSet
187 457 m 4
 193 455 299 460 300 459 c 0
 301 458 297 340 290 339 c 0
 233 329 200 334 194 329 c 0
 192 327 159 49 177 20 c 0
 178 18 176 -6 162 7 c 0
 144 23 70 -2 17 8 c 1
 16 23 l 2
 16 23 16 23 13 209 c 0
 11 324 28 354 28 408 c 0
 29 746 185 767 272 782 c 0
 301 787 410 784 440 724 c 1
 440 724 424 697 424 695 c 0
 424 694 378 627 373 635 c 0
 371 640 342 688 287 673 c 0
 277 671 271 667 271 667 c 1
 273 667 234 643 220 610 c 0
 168 488 186 457 187 457 c 4
EndSplineSet
Validated: 33
EndChar

StartChar: g
Encoding: 103 103 39
Width: 477
VWidth: 987
Flags: W
HStem: 349 122<202.509 293.816>
VStem: 22 125<160.876 281.996>
LayerCount: 2
Fore
SplineSet
307 348 m 1
 250 349 l 26
 187 348 146 249 147 208 c 0
 148 170 186 124 232 129 c 0
 280 134 289 148 325 162 c 25
 307 348 l 1
315 440 m 1
 329 523 l 17
 366 506 405 517 442 515 c 1
 416 319 451 241 448 48 c 0
 445 -209 284 -200 179 -201 c 0
 84.9564047625 -201.895653288 50.3 -164.9 26 -92 c 2
 6 -32 l 1
 106 2 l 1
 122 -76 190 -79 227 -76 c 0
 284.818876644 -71.3119829748 376 -45 340 54 c 9
 294 34 299 6 220 5 c 0
 132 4 16 74 22 248 c 0
 25 371 85 474 204 471 c 0
 267 469 271 457 315 440 c 1
EndSplineSet
Validated: 524321
EndChar

StartChar: h
Encoding: 104 104 40
Width: 464
VWidth: 987
Flags: W
LayerCount: 2
Back
Fore
SplineSet
137 789 m 0
 145 792 138 617 138 616 c 0
 137 608 151 420 152 419 c 0
 182 401 128 458 285 476 c 0
 445 494 448 215 450 -2 c 1
 354 0 344 0 341 3 c 0
 339 5 374 384 261 358 c 0
 96 319 174 20 160 7 c 5
 150 0 140 0 32 0 c 1
 19 0 15 759 30 777 c 0
 43 793 117 780 137 789 c 0
EndSplineSet
Validated: 33
EndChar

StartChar: i
Encoding: 105 105 41
Width: 343
VWidth: 987
Flags: W
HStem: 470 20G<26 56> 576 127<46.4059 126.001>
VStem: 26 119<594.169 682.389>
LayerCount: 2
Back
Fore
SplineSet
94 703 m 0
 125 703 144 676 145 647 c 0
 146 607 111 576 83 576 c 0
 55 576 27 604 26 637 c 0
 25 676 69 703 94 703 c 0
117 489 m 4
 124 491 137 497 132 474 c 0
 131 471 119 123 172 122 c 0
 208 122 234 195 247 195 c 0
 248 195 278 171 320 145 c 0
 335 136 333 127 311 102 c 0
 226 2 202 -1 149 2 c 0
 77 7 20 24 13 359 c 0
 12 443 26 420 26 490 c 1
 86 488 110 486 117 489 c 4
EndSplineSet
Validated: 33
EndChar

StartChar: j
Encoding: 106 106 42
Width: 383
VWidth: 987
Flags: W
VStem: 14 135<-115.582 -56.0575> 270 95<-35.6503 486.907>
LayerCount: 2
Back
Fore
SplineSet
311 588 m 24
 256 585 227 683 310 704 c 0
 385 722 375 591 311 588 c 24
277 -192 m 0
 277 -193 239 -228 171 -228 c 0
 135 -228 121 -223 88 -194 c 0
 65 -174 44 -146 36 -126 c 0
 30 -112 14 -39 14 -29 c 0
 14 -21 19 -17 25 -20 c 0
 38 -27 110 -10 111 -10 c 0
 112 -10 127 -68 149 -102 c 0
 163 -124 196 -121 219 -99 c 0
 234 -85 241 -70 249 -30 c 0
 267 60 269 73 270 179 c 0
 270 180 273 302 272 310 c 0
 269 330 265 431 259 455 c 0
 252 484 253 485 254 487 c 0
 261 495 307 485 346 491 c 0
 374 496 373 496 363 445 c 0
 361 435 361 418 362 389 c 0
 364 350 364 275 365 109 c 0
 366 34 366 7 344 -40 c 0
 336 -57 324 -97 324 -104 c 0
 324 -118 277 -192 277 -192 c 0
EndSplineSet
Validated: 33
EndChar

StartChar: k
Encoding: 107 107 43
Width: 448
VWidth: 987
Flags: W
VStem: 18 146<287.317 386.441> 22 11<786.449 794.011> 34 149<10.1374 115.958>
LayerCount: 2
Back
Fore
SplineSet
22 789 m 0x40
 25 796 31 797 33 790 c 0
 36 777 142 785 143 784 c 0
 144 783 145 777 143 769 c 0
 126 694 140 459 142 457 c 0
 143 456 230 498 267 488 c 0
 272 487 281 485 288 484 c 0
 326 479 430 411 388 301 c 0
 382 287 362 261 352 253 c 0
 322 229 241 206 238 203 c 0
 236 201 245 193 274 178 c 0
 287 171 347 138 409 63 c 0
 414 58 420 50 425 45 c 0
 435 34 436 28 427 20 c 0
 412 5 363 20 349 6 c 0
 336 -5 324 13 323 16 c 0
 321 27 279 78 272 78 c 0
 271 78 193 124 187 118 c 0
 185 116 184 78 183 6 c 1
 147 8 l 2
 102 10 86 11 76 6 c 0
 39 -10 34 -3 34 26 c 0x60
 34 52 26 74 23 162 c 0
 22 195 19 228 18 234 c 0x80
 16 245 15 460 15 594 c 0
 15 695 19 781 22 789 c 0x40
262 390 m 0
 256 395 233 399 230 396 c 0
 229 395 168 389 171 374 c 0
 172 371 171 369 169 369 c 0
 166 369 165 363 164 333 c 0x80
 163 292 163 289 171 287 c 0
 186 284 279 301 279 356 c 0
 279 365 269 384 262 390 c 0
EndSplineSet
Validated: 33
EndChar

StartChar: p
Encoding: 112 112 44
Width: 484
VWidth: 987
Flags: W
HStem: 16 144<172.959 332.688>
LayerCount: 2
Back
Fore
SplineSet
191 455 m 0
 258 501 291 497 331 490 c 0
 365 483 383 478 396 465 c 0
 409 454 425 431 425 426 c 0
 425 424 491 303 460 164 c 0
 453 132 415 69 393 54 c 0
 341 18 336 16 302 16 c 0
 289 16 274 16 271 15 c 0
 257 12 176 27 162 47 c 0
 155 57 151 61 149 5 c 0
 140.840308678 -216.127634823 135.857421875 -209.134765625 134 -208 c 4
 127 -203 52 -198 24 -199 c 0
 11 -199 10 -199 8 -191 c 0
 -2 -154 24 23 25 28 c 0
 31 66 51 462 51 467 c 0
 51 475 58 483 65 481 c 0
 73 479 171 484 173 482 c 0
 175 480 171 444 172 443 c 0
 172 442 182 448 191 455 c 0
282 378 m 0
 249 387 261 374 239 373 c 0
 228 373 178 346 170 336 c 2
 162 326 l 1
 162 265 l 2
 162 232 161 200 161 194 c 0
 160 180 164 178 197 170 c 0
 245 159 271 155 295 160 c 0
 311 163 344 188 352 203 c 0
 365 228 377 278 335 340 c 0
 319 364 307 371 282 378 c 0
EndSplineSet
Validated: 524321
EndChar

StartChar: q
Encoding: 113 113 45
Width: 409
VWidth: 987
Flags: W
LayerCount: 2
Back
Fore
SplineSet
234 16 m 0
 228 16 219 6 210 6 c 0
 207 6 201 4 196 2 c 0
 181 -6 115 -2 70 42 c 0
 60 52 37 94 37 103 c 0
 37 124 11 151 17 253 c 0
 22 336 73 425 179 433 c 0
 226 436 257 404 266 418 c 0
 273 428 275 407 280 406 c 0
 281 406 284 405 286 405 c 0
 292 404 294 406 294 432 c 0
 295 462 295 461 311 460 c 0
 322 459 374 472 382 463 c 0
 389 455 394 241 389 130 c 0
 382.633774351 -64.1698822989 396.10546875 -122.541992188 381 -188 c 4
 376 -206 332 -185 298 -195 c 4
 276 -202 272 -202 270 -199 c 4
 256 -176 278 -214 270 -11 c 0
 268 35 266 39 256 30 c 0
 254 28 250 26 249 26 c 0
 246 26 240 16 234 16 c 0
250 320 m 0
 237 327 196 322 186 312 c 0
 185 311 181 310 179 310 c 0
 162 310 108 250 131 186 c 0
 154 123 220 127 241 135 c 0
 264 144 266 146 267 170 c 0
 269 199 264 225 263 276 c 0
 262 312 260 314 250 320 c 0
EndSplineSet
Validated: 524321
EndChar

StartChar: r
Encoding: 114 114 46
Width: 452
VWidth: 987
Flags: W
HStem: 469 20G<64 114 287.5 292>
VStem: 10 104<389 494.281> 46 106<2.96899 248.34>
LayerCount: 2
Back
Fore
SplineSet
172 488 m 0xc0
 211 512 287 489 288 489 c 0
 296 487 314 482 325 480 c 0
 387 466 448 415 442 382 c 0
 441 374 436 370 412 354 c 0
 396 344 383 334 381 333 c 0
 375 330 369 335 367 346 c 0
 362 371 295 406 262 398 c 0
 255 397 249 396 248 397 c 0
 246 398 225 390 208 382 c 0
 194 375 177 352 169 328 c 0
 153 283 149 198 152 56 c 0
 153 0 153 -5 140 2 c 0
 133 5 53 -2 46 5 c 0xa0
 43 8 54 98 40 140 c 0
 39 142 20 247 10 389 c 0
 8 422 10 489 13 492 c 0
 14 493 36 495 64 496 c 2
 114 497 l 1
 114 481 l 2
 114 472 115 462 116 461 c 0
 118 458 141 470 172 488 c 0xc0
EndSplineSet
Validated: 33
EndChar

StartChar: s
Encoding: 115 115 47
Width: 311
VWidth: 987
Flags: W
HStem: 382 106<129.675 171>
LayerCount: 2
Back
Fore
SplineSet
76 259 m 0
 65 259 34 311 40 383 c 0
 43 434 97 477 115 484 c 0
 118 485 132 488 146 488 c 2
 171 488 l 1
 204 472 l 2
 222 463 267 443 274 404 c 0
 277 383 257 380 255 381 c 0
 245 383 220 349 215 349 c 0
 213 349 178 382 163 382 c 0
 124 382 116 337 148 320 c 0
 199 294 248 306 279 264 c 0
 299 238 318 182 267 87 c 0
 261 77 226 39 215 32 c 0
 166 1 106 -1 92 6 c 0
 89 7 84 8 82 8 c 0
 79 8 31 37 21 37 c 0
 -17 37 43 76 51 109 c 0
 53 118 61 118 68 110 c 0
 68 110 165 61 191 157 c 0
 200 191 192 225 170 235 c 0
 155 243 110 236 88 251 c 0
 82 256 77 259 76 259 c 0
EndSplineSet
Validated: 33
EndChar

StartChar: t
Encoding: 116 116 48
Width: 421
VWidth: 987
Flags: W
HStem: 386 103<238.23 327.978> 398 85<8.64097 128.933>
VStem: 129 101<487.119 618> 130 109<123.119 385.822> 140 99<123.119 385.822>
LayerCount: 2
Back
Fore
SplineSet
134 618 m 0x60
 139 623 144 622 147 619 c 0
 148 618 202 615 235 618 c 1
 234 587 l 2
 234 550 229 490 230 489 c 0xa0
 231 488 303 483 333 488 c 1
 333 444 l 2
 332 390 328 388 328 388 c 0
 328 382 298 379 277 382 c 0
 268 383 255 386 249 386 c 0
 240 386 239 385 239 380 c 0
 239 379 235 317 238 226 c 0
 239 201 239 176 239 171 c 0x90
 239 158 247 134 253 127 c 0
 267 112 312 132 328 171 c 0
 334 185 340 185 349 174 c 0
 359 163 393 144 401 143 c 0
 429 140 378 82 378 82 c 0
 372 75 363 64 357 56 c 0
 334 26 328 17 276 8 c 0
 271 7 258 4 245 1 c 0
 166 -17 155 26 152 80 c 0
 150 121 143 146 140 226 c 0x88
 139 257 130 370 130 371 c 0x90
 130 388 130 387 99 395 c 0
 74 401 49 403 29 398 c 0
 8 393 8 395 8 432 c 0
 8 454 7 464 5 470 c 0
 -2 484 -1 483 67 483 c 0
 100 483 128 483 129 484 c 0
 131 486 127 610 134 618 c 0x60
EndSplineSet
Validated: 33
EndChar

StartChar: u
Encoding: 117 117 49
Width: 433
VWidth: 987
Flags: W
VStem: 14 117<248.688 480.496> 294 114<172.992 254.949> 311 105<277.844 486.096>
LayerCount: 2
Back
Fore
SplineSet
395 491 m 0xa0
 419 501 422 498 416 461 c 0xa0
 413 439 412 440 412 270 c 0
 412 247 409 282 408 121 c 0xc0
 407 -16 408 -19 393 -6 c 0
 379 5 334 7 332 6 c 0
 311 -2 317 44 311 44 c 0xa0
 310 44 305 38 300 30 c 0
 274 -14 196 0 158 21 c 0
 111 46 95 61 77 101 c 0
 57 143 49 171 41 219 c 0
 38 243 32 271 30 280 c 0
 21 317 9 450 14 463 c 0
 16 468 17 474 16 476 c 0
 15 479 17 480 24 480 c 0
 84 482 125 495 130 488 c 0
 131 486 132 482 131 480 c 0
 128 471 126 341 129 320 c 0
 131 309 132 291 133 281 c 0
 135 244 145 206 154 192 c 0
 174 161 198 143 227 140 c 0
 242 139 243 138 257 152 c 0
 281 176 294 231 294 240 c 0xc0
 294 247 296 254 297 255 c 0
 310 263 320 440 311 474 c 0
 304 497 320 493 327 491 c 0
 342 485 381 485 395 491 c 0xa0
EndSplineSet
Validated: 33
EndChar

StartChar: v
Encoding: 118 118 50
Width: 536
VWidth: 987
Flags: W
VStem: 90 161<180.963 300.367> 386 104<331.17 452.05>
LayerCount: 2
Back
Fore
SplineSet
511 448 m 0
 511 443 490 400 490 391 c 0
 490 377 443 273 442 263 c 0
 441 250 439 254 433 239 c 0
 403 159 382 104 382 102 c 0
 382 102 377 89 371 72 c 0
 346 -5 351 0 309 5 c 0
 234 13 195 0 194 0 c 0
 189 0 176 14 179 15 c 0
 181 16 172 37 164 52 c 0
 163 53 110 175 108 195 c 0
 106 223 90 243 90 254 c 0
 90 271 81 265 65 338 c 0
 50 406 40 432 24 457 c 0
 18 465 11 489 11 489 c 1
 11 489 63 490 87 487 c 0
 140 480 140 480 142 478 c 0
 143 477 147 475 149 475 c 0
 157 475 162 473 162 470 c 0
 162 463 251 247 251 245 c 0
 251 236 251 235 277 166 c 0
 279 159 287 156 287 162 c 0
 287 165 297 184 300 189 c 0
 302 191 380 319 386 448 c 0
 387 478 389 482 402 482 c 0
 487 482 487 482 515 476 c 0
 529 474 511 456 511 448 c 0
EndSplineSet
Validated: 33
EndChar

StartChar: x
Encoding: 120 120 51
Width: 507
VWidth: 987
Flags: W
LayerCount: 2
Back
Fore
SplineSet
149 436 m 0
 149 430 165 410 165 405 c 0
 165 396 238 294 241 296 c 0
 242 297 316 440 332 465 c 0
 337 472 340 479 340 480 c 0
 340 480 347 499 363 496 c 0
 376 494 480 496 488 494 c 0
 504 489 477 471 463 442 c 0
 456 428 443 413 430 389 c 0
 404 337 411 361 391 327 c 0
 373 294 347 258 347 249 c 0
 347 247 345 243 344 243 c 0
 335 240 357 219 363 205 c 0
 372 183 418 128 418 121 c 0
 418 119 435 96 437 88 c 0
 443 71 486 36 486 29 c 0
 486 22 498 24 489 9 c 0
 486 4 483 3 476 3 c 0
 459 3 450 -6 435 -1 c 0
 415 5 354 -7 347 11 c 0
 345 17 327 23 325 33 c 0
 323 43 309 52 301 69 c 0
 301 69 303 63 277 109 c 0
 246 164 246 164 245 164 c 0
 236 164 180 5 174 -1 c 0
 165 -10 158 3 126 0 c 0
 103 -2 75 0 65 -3 c 0
 42 -10 53 14 53 14 c 0
 58 16 108 115 140 156 c 0
 146 163 154 176 161 186 c 2
 172 204 l 1
 163 225 l 2
 141 270 84 340 83 341 c 0
 82 342 11 455 5 460 c 0
 -1 465 -1 467 1 473 c 0
 3 480 5 479 14 478 c 0
 31 476 104 477 114 479 c 0
 127 482 135 480 135 473 c 0
 135 458 149 438 149 436 c 0
EndSplineSet
Validated: 33
EndChar

StartChar: z
Encoding: 122 122 52
Width: 446
VWidth: 987
Flags: W
HStem: 21 106<239.1 418.586> 359 125<20.3381 296.757>
LayerCount: 2
Back
Fore
SplineSet
420 484 m 1
 414 361 414 362 414 331 c 4
 414 330 398 322 370 286 c 0
 357 270 347 254 347 253 c 0
 347 252 283 184 277 174 c 0
 263 148 237 123 238 118 c 0
 240 110 375 121 396 127 c 0
 404 129 419 142 420 83 c 0
 421 21 422 21 402 21 c 0
 400 21 244 16 208 13 c 0
 175 10 114 7 83 5 c 0
 54 3 51 4 54 20 c 0
 55 26 56 45 56 62 c 2
 56 95 l 1
 82 121 l 2
 83 122 176 218 214 267 c 0
 232 292 240 291 250 304 c 0
 251 305 251 306 288 343 c 0
 303 358 303 358 298 359 c 0
 275 365 25 352 23 354 c 0
 22 355 21 397 6 472 c 0
 5 477 5 479 8 479 c 0
 17 479 260 480 284 482 c 0
 293 483 327 484 360 484 c 2
 420 484 l 1
EndSplineSet
Validated: 33
EndChar

StartChar: colon
Encoding: 58 58 53
Width: 175
VWidth: 1175
Flags: W
LayerCount: 2
Fore
SplineSet
82 234 m 4
 88 253 141 231 147 216 c 4
 151 207 150 155 146 141 c 4
 139 116 107 92 102 91 c 4
 99 90 93 88 89 86 c 4
 83 83 42 81 24 108 c 4
 5 136 29 186 31 189 c 4
 36 196 62 217 67 217 c 4
 71 217 80 228 82 234 c 4
87 523 m 4
 93 542 147 519 153 504 c 4
 157 495 155 444 151 430 c 4
 144 405 112 381 107 380 c 4
 104 379 98 377 94 375 c 4
 88 372 47 370 29 397 c 4
 10 425 34 474 36 477 c 4
 41 484 67 506 72 506 c 4
 76 506 85 517 87 523 c 4
EndSplineSet
Validated: 33
EndChar

StartChar: parenright
Encoding: 41 41 54
Width: 199
VWidth: 1399
Flags: W
VStem: 85 63<171.379 692.981>
LayerCount: 2
Back
Fore
SplineSet
61 778 m 0
 88 785 97 785 99 777 c 0
 99 776 123 755 128 724 c 0
 131 704 135 696 137 677 c 0
 139 657 142 651 141 638 c 0
 140 631 157 407 148 336 c 0
 148 334 136 181 127 142 c 0
 115 90 108 57 89 16 c 0
 81 -3 49 -2 49 6 c 0
 49 8 45 8 33 8 c 0
 22 8 7 8 20 24 c 0
 42 52 81 239 85 333 c 0
 86 362 89 364 89 384 c 0
 88 446 95 470 92 481 c 0
 88 493 95 491 93 519 c 0
 90 563 90 563 89 568 c 0
 83 596 84 559 75 626 c 0
 73 641 74 662 69 672 c 0
 67 676 65 681 65 686 c 0
 65 690 32 772 37 773 c 0
 41 774 53 776 61 778 c 0
EndSplineSet
Validated: 33
EndChar

StartChar: comma
Encoding: 44 44 55
Width: 174
VWidth: 1399
Flags: W
HStem: -70 39<-66.8381 2.30396>
VStem: 35 106<23.1846 115.906>
LayerCount: 2
Back
Fore
SplineSet
32 23 m 4
 32 27 27 27 27 31 c 4
 27 33 26 34 25 34 c 4
 19 34 17 65 30 85 c 4
 33 89 35 93 35 94 c 4
 35 98 52 117 63 121 c 4
 77 126 86 130 92 132 c 4
 102 135 134 121 136 116 c 4
 137 114 139 111 141 108 c 4
 142 106 161 76 122 10 c 4
 87 -48 18 -63 -2 -65 c 4
 -15 -67 -29 -69 -34 -70 c 4
 -53 -75 -107 -68 -59 -46 c 4
 -49 -41 -39 -34 -30 -31 c 4
 -4 -23 12 -1 15 -1 c 4
 17 -1 32 20 32 23 c 4
EndSplineSet
Validated: 33
EndChar

StartChar: semicolon
Encoding: 59 59 56
Width: 175
VWidth: 1175
Flags: W
VStem: 29 118<112.516 219.875>
LayerCount: 2
Fore
SplineSet
64 104 m 0
 62 108 58 104 56 108 c 0
 55 109 54 110 53 110 c 0
 48 107 29 131 29 155 c 0
 29 160 29 164 28 165 c 0
 26 168 29 193 36 203 c 0
 45 215 50 223 54 228 c 0
 61 236 96 242 100 239 c 0
 101 238 105 236 108 235 c 0
 110 234 143 220 147 143 c 0
 150 75 99 25 84 12 c 0
 74 4 64 -6 61 -10 c 0
 48 -25 -1 -49 27 -4 c 0
 33 5 36 17 42 25 c 0
 59 46 62 73 64 75 c 0
 66 76 66 101 64 104 c 0
87 523 m 0
 93 542 147 519 153 504 c 0
 157 495 155 444 151 430 c 0
 144 405 112 381 107 380 c 0
 104 379 98 377 94 375 c 0
 88 372 47 370 29 397 c 0
 10 425 34 474 36 477 c 0
 41 484 67 506 72 506 c 0
 76 506 85 517 87 523 c 0
EndSplineSet
Validated: 33
EndChar

StartChar: question
Encoding: 63 63 57
Width: 410
VWidth: 1399
Flags: W
HStem: 677 69<117.53 145.828>
VStem: 72 9<596.023 601.447> 106 96<22.6646 93.1066> 142 78<204.466 338.699> 298 91<454.109 609.934>
LayerCount: 2
Back
Fore
SplineSet
141 114 m 0xe8
 137 120 190 145 202 88 c 0
 202 87 207 22 163 16 c 0
 158 15 150 13 144 11 c 0
 130 5 126 5 119 12 c 0
 108 22 106 28 106 51 c 0
 106 61 106 91 132 96 c 0
 142 98 141 114 141 114 c 0xe8
72 597 m 0
 72 598 60 613 22 612 c 0
 4 612 -3 612 5 628 c 0
 11 640 9 648 13 654 c 0
 18 661 44 709 56 720 c 0
 84 746 84 746 90 746 c 0
 102 746 124 763 138 766 c 0
 148 768 169 780 171 774 c 0
 172 772 173 773 175 774 c 0
 180 777 225 776 233 779 c 0
 245 783 268 778 300 763 c 0
 301 763 350 733 368 689 c 0
 381 657 381 657 381 653 c 0
 381 645 385 647 385 612 c 0
 385 567 391 582 389 537 c 0
 387 491 386 461 342 401 c 0
 334 390 329 385 316 379 c 0
 294 368 276 349 265 349 c 0
 260 349 254 341 244 339 c 0
 231 337 222 332 221 327 c 0
 215 300 223 248 220 224 c 0
 216 190 229 208 220 194 c 0
 217 189 217 189 221 185 c 0
 225 181 223 176 218 176 c 0
 199 176 170 199 138 182 c 0
 119 172 119 172 117 173 c 0
 110 175 118 182 121 218 c 0
 122 230 130 280 134 336 c 0
 136 364 142 363 142 371 c 0xd8
 142 383 177 390 177 390 c 0
 192 390 258 414 289 475 c 0
 294 485 298 493 298 494 c 0
 298 495 318 555 313 563 c 0
 310 568 313 603 297 626 c 0
 259 682 255 687 214 689 c 0
 194 690 189 690 178 687 c 0
 159 682 150 681 149 679 c 0
 148 678 147 677 145 677 c 0
 144 677 105 650 92 624 c 0
 80 600 81 601 81 599 c 0
 81 598 79 596 76 596 c 0
 74 596 72 596 72 597 c 0
EndSplineSet
Validated: 33
EndChar

StartChar: exclam
Encoding: 33 33 58
Width: 216
VWidth: 1399
Flags: W
HStem: 749 10<81 89>
VStem: 46 94<201.068 539.012> 71 90<346.584 756.455>
LayerCount: 2
Back
Fore
SplineSet
56 8 m 0x80
 50 8 6 33 32 89 c 0
 40 107 43 115 72 120 c 0
 94 124 82 130 95 135 c 0
 138 153 148 22 98 8 c 0
 86 5 90 4 81 1 c 0
 69 -2 63 8 56 8 c 0x80
91 760 m 0
 91 761 153 792 172 774 c 0
 174 772 177 771 179 770 c 0
 183 769 184 767 184 762 c 0
 184 750 178 750 173 679 c 0
 171 645 162 608 161 532 c 0xa0
 161 529 144 277 144 276 c 0
 142 268 137 247 140 202 c 0
 141 182 131 170 128 187 c 0
 127 194 89 208 63 196 c 0
 40 185 46 174 39 178 c 0
 29 183 44 188 40 198 c 0
 36 207 42 195 46 289 c 0xc0
 50 375 73 564 71 605 c 0xa0
 71 611 75 637 75 649 c 0
 75 659 81 674 80 735 c 0
 80 740 86 749 81 749 c 0
 80 749 78 749 78 750 c 0
 78 752 87 759 89 759 c 0
 90 759 91 759 91 760 c 0
EndSplineSet
Validated: 33
EndChar

StartChar: quotesingle
Encoding: 39 39 59
Width: 140
VWidth: 1399
Flags: W
VStem: 13 118<501.629 611.875>
LayerCount: 2
Fore
SplineSet
48 496 m 4
 46 500 42 496 40 500 c 4
 39 501 38 501 37 501 c 4
 32 498 13 522 13 546 c 4
 13 551 13 556 12 557 c 4
 10 560 13 584 20 594 c 4
 29 606 34 615 38 620 c 4
 45 628 80 634 84 631 c 4
 85 630 89 628 92 627 c 4
 94 626 127 612 131 535 c 4
 134 467 83 417 68 404 c 4
 58 396 48 386 45 382 c 4
 32 367 -17 343 11 388 c 4
 17 397 20 409 26 417 c 4
 43 438 46 465 48 467 c 4
 50 468 50 493 48 496 c 4
EndSplineSet
Validated: 33
EndChar

StartChar: period
Encoding: 46 46 60
Width: 175
VWidth: 1175
Flags: W
LayerCount: 2
Back
Fore
SplineSet
86 141 m 4
 92 160 145 137 151 122 c 4
 155 113 153 62 149 48 c 4
 142 23 111 -1 106 -2 c 4
 103 -3 97 -5 93 -7 c 4
 87 -10 45 -12 27 15 c 4
 8 43 32 93 34 96 c 4
 39 103 66 124 71 124 c 4
 75 124 84 135 86 141 c 4
EndSplineSet
Validated: 33
EndChar

StartChar: parenleft
Encoding: 40 40 61
Width: 241
VWidth: 1175
Flags: W
VStem: 15 83<192.42 497.982> 61 44<500 611> 72 59<50.6873 156.257>
LayerCount: 2
Back
Fore
SplineSet
72 98 m 0x20
 72 99 45 165 45 172 c 0
 45 175 35 190 32 220 c 0
 24 290 24 290 22 299 c 0
 21 304 14 404 15 405 c 0x80
 16 406 25 490 48 565 c 0
 54 583 55 597 55 597 c 0
 57 597 61 607 61 611 c 0
 61 628 119 734 124 734 c 0
 125 734 156 775 164 776 c 0
 217 780 168 784 208 782 c 0
 229 781 228 780 226 774 c 0
 216 736 186 734 167 693 c 0
 157 672 163 691 137 630 c 0
 120 589 127 589 120 576 c 0
 120 575 106 528 105 500 c 0x40
 104 456 98 474 98 386 c 0x80
 98 287 99 254 102 235 c 0
 107 207 113 152 116 142 c 0
 120 128 127 99 131 87 c 0
 131 86 148 31 148 29 c 0
 148 29 159 7 150 1 c 0
 150 1 117 -4 112 7 c 0
 109 14 109 11 102 31 c 0
 93 58 72 92 72 98 c 0x20
EndSplineSet
Validated: 33
EndChar

StartChar: zero
Encoding: 48 48 62
Width: 553
VWidth: 1175
Flags: W
HStem: 672.464 147.104<253.223 336.391>
VStem: 367.754 153.23<280.254 618.883>
LayerCount: 2
Back
Fore
SplineSet
200.512695312 809.934570312 m 0
 225.030273438 817.815429688 239.040039062 822.193359375 262.681640625 819.567382812 c 0
 304.709960938 815.188476562 344.112304688 827.446289062 380.01171875 811.686523438 c 0
 381.763671875 810.810546875 475.453125 762.653320312 500.84765625 661.958007812 c 0
 507.8515625 632.1875 513.10546875 645.321289062 520.984375 586.655273438 c 0
 520.984375 584.903320312 540.249023438 404.530273438 524.48828125 373.0078125 c 0
 514.856445312 353.744140625 507.8515625 130.465820312 426.419921875 66.5458984375 c 0
 421.166992188 62.1689453125 365.126953125 19.263671875 320.471679688 13.1337890625 c 0
 298.58203125 9.6318359375 295.955078125 6.1298828125 279.318359375 4.37890625 c 0
 239.916015625 0.8759765625 187.379882812 5.25390625 158.485351562 3.501953125 c 0
 7.0048828125 -6.1298828125 4.37890625 259.1796875 39.4013671875 519.232421875 c 0
 44.6552734375 561.263671875 91.9384765625 718.872070312 147.100585938 774.911132812 c 0
 168.991210938 797.676757812 175.997070312 802.0546875 200.512695312 809.934570312 c 0
360.75 619.052734375 m 0
 360.75 633.0625 314.342773438 673.33984375 299.458007812 672.463867188 c 0
 279.318359375 671.588867188 252.174804688 651.450195312 247.795898438 645.321289062 c 0
 246.044921875 643.5703125 243.41796875 639.192382812 241.666992188 637.440429688 c 0
 211.896484375 605.043945312 152.35546875 382.639648438 183.000976562 271.4375 c 0
 193.508789062 232.03515625 211.896484375 225.030273438 219.77734375 206.643554688 c 0
 228.533203125 187.379882812 270.561523438 165.489257812 297.706054688 185.62890625 c 0
 317.844726562 201.389648438 380.01171875 260.0546875 384.390625 405.405273438 c 0
 386.142578125 471.951171875 388.768554688 550.754882812 370.380859375 593.66015625 c 0
 368.630859375 597.162109375 367.75390625 600.666015625 367.75390625 601.541015625 c 0
 367.75390625 605.043945312 360.75 615.549804688 360.75 619.052734375 c 0
EndSplineSet
Validated: 524321
EndChar

StartChar: one
Encoding: 49 49 63
Width: 465
VWidth: 1175
Flags: W
HStem: -8.66797 143.883<299.818 412.973> 6.93359 112.679<28.8008 173.97> 19.9346 104.012<29.3574 172.304>
LayerCount: 2
Back
Fore
SplineSet
179.418945312 808.6875 m 0x40
 184.620117188 815.622070312 184.620117188 816.489257812 201.088867188 813.021484375 c 0
 202.821289062 813.021484375 383.974609375 803.48828125 385.708007812 801.75390625 c 0
 388.30859375 799.153320312 386.575195312 790.485351562 383.108398438 783.55078125 c 0
 377.907226562 774.017578125 383.108398438 733.280273438 378.774414062 712.478515625 c 0
 357.10546875 613.666992188 357.10546875 612.799804688 357.10546875 612.799804688 c 0
 356.23828125 608.466796875 287.764648438 165.551757812 301.631835938 144.749023438 c 0
 308.567382812 135.21484375 429.046875 136.081054688 429.9140625 135.21484375 c 0
 456.783203125 125.680664062 415.178710938 98.810546875 413.4453125 36.404296875 c 0
 413.4453125 25.1357421875 412.578125 21.6689453125 415.178710938 19.068359375 c 0
 421.24609375 12.1337890625 404.77734375 -8.66796875 394.375976562 -8.66796875 c 0x80
 383.974609375 -8.66796875 385.708007812 -5.2001953125 365.7734375 -3.466796875 c 0
 334.569335938 -0.8671875 138.682617188 2.6005859375 113.545898438 6.93359375 c 0x40
 112.678710938 6.93359375 32.9375 19.068359375 17.3349609375 19.9345703125 c 1
 18.203125 32.0703125 l 2
 19.068359375 45.9375 32.9375 123.080078125 33.8037109375 123.946289062 c 0x20
 37.26953125 130.880859375 146.482421875 119.612304688 147.349609375 119.612304688 c 2
 169.885742188 118.74609375 l 1
 175.952148438 130.880859375 245.29296875 691.673828125 242.693359375 696.875976562 c 0
 240.958984375 699.475585938 238.359375 688.208007812 238.359375 688.208007812 c 0
 234.892578125 688.208007812 147.349609375 618 147.349609375 618 c 0
 147.349609375 618 140.416015625 630.135742188 136.081054688 635.3359375 c 0
 114.412109375 658.739257812 105.745117188 674.33984375 91.876953125 687.340820312 c 0
 88.41015625 690.80859375 54.6064453125 722.010742188 76.2744140625 722.010742188 c 0
 84.076171875 722.010742188 85.8095703125 733.280273438 95.34375 739.346679688 c 0
 117.879882812 753.21484375 110.944335938 757.549804688 137.814453125 774.883789062 c 0
 160.3515625 789.620117188 174.21875 800.887695312 179.418945312 808.6875 c 0x40
EndSplineSet
Validated: 524321
EndChar

StartChar: two
Encoding: 50 50 64
Width: 475
VWidth: 1175
Flags: W
HStem: -4.28711 162.044<217.774 395.79>
LayerCount: 2
Back
Fore
SplineSet
25.7216796875 697.045898438 m 0
 25.7216796875 719.336914062 146.611328125 789.642578125 165.47265625 789.642578125 c 0
 175.76171875 789.642578125 255.497070312 820.5078125 300.938476562 805.075195312 c 0
 313.799804688 800.788085938 336.090820312 800.788085938 375.530273438 781.92578125 c 0
 390.10546875 775.06640625 407.252929688 760.491210938 428.6875 738.200195312 c 0
 480.129882812 685.04296875 438.975585938 513.567382812 432.974609375 495.5625 c 0
 380.674804688 330.947265625 372.958007812 305.225585938 286.36328125 220.345703125 c 0
 246.06640625 181.763671875 218.630859375 162.043945312 217.772460938 161.186523438 c 0
 215.201171875 157.756835938 380.674804688 155.184570312 396.107421875 157.756835938 c 0
 409.825195312 159.471679688 438.119140625 159.471679688 440.690429688 156.899414062 c 0
 441.547851562 156.041992188 446.693359375 144.896484375 434.689453125 133.750976562 c 0
 426.971679688 126.034179688 412.397460938 110.600585938 408.110351562 84.0224609375 c 0
 406.395507812 76.3056640625 396.107421875 20.5771484375 396.107421875 19.71875 c 0
 389.248046875 -12.8603515625 388.390625 -12.8603515625 371.243164062 -4.287109375 c 0
 355.810546875 3.4287109375 202.340820312 -6.8583984375 158.614257812 0 c 0
 121.747070312 6.001953125 21.4345703125 -7.7158203125 12.0029296875 -2.5712890625 c 0
 7.7158203125 0 3.4287109375 3.4287109375 10.2880859375 9.431640625 c 0
 19.71875 18.005859375 14.5751953125 48.0126953125 22.2919921875 78.87890625 c 0
 24.86328125 87.453125 27.435546875 126.034179688 27.435546875 147.46875 c 0
 27.435546875 170.618164062 26.5791015625 170.618164062 54.8720703125 180.048828125 c 0
 57.4443359375 180.90625 118.317382812 221.202148438 119.174804688 222.059570312 c 0
 173.190429688 270.930664062 173.190429688 270.930664062 180.048828125 278.646484375 c 0
 269.215820312 385.818359375 298.366210938 438.119140625 308.655273438 522.140625 c 0
 343.807617188 820.5078125 113.173828125 619.881835938 111.458984375 612.165039062 c 0
 111.458984375 612.165039062 101.168945312 588.159179688 90.8818359375 607.87890625 c 0
 61.7314453125 661.893554688 25.7216796875 691.043945312 25.7216796875 697.045898438 c 0
EndSplineSet
Validated: 524321
EndChar

StartChar: three
Encoding: 51 51 65
Width: 452
VWidth: 1175
Flags: W
HStem: 5.30664 276.833<110.557 206.076>
LayerCount: 2
Back
Fore
SplineSet
272.41015625 818.116210938 m 0
 353.780273438 806.618164062 424.536132812 765.934570312 438.6875 663.337890625 c 0
 457.260742188 530.669921875 303.365234375 395.349609375 303.365234375 392.6953125 c 0
 303.365234375 359.970703125 429.842773438 405.961914062 405.961914062 232.610351562 c 0
 405.961914062 229.95703125 370.584960938 0.884765625 206.076171875 5.306640625 c 0
 176.889648438 6.19140625 80.4853515625 39.7998046875 7.0751953125 195.463867188 c 2
 1.76953125 206.9609375 l 1
 48.64453125 255.60546875 109.671875 282.139648438 110.556640625 282.139648438 c 0
 138.858398438 282.139648438 207.845703125 114.09375 248.530273438 158.31640625 c 0
 258.259765625 168.930664062 279.486328125 221.997070312 275.064453125 240.571289062 c 0
 274.1796875 244.108398438 273.294921875 262.681640625 273.294921875 257.375 c 0
 273.294921875 256.490234375 274.1796875 330.784179688 176.889648438 344.05078125 c 0
 163.624023438 345.8203125 184.849609375 470.52734375 185.735351562 471.411132812 c 0
 188.387695312 475.833984375 257.375 452.838867188 287.446289062 554.55078125 c 0
 296.291015625 584.622070312 293.637695312 666.875 222.881835938 666.875 c 0
 178.659179688 666.875 112.326171875 601.42578125 111.440429688 601.42578125 c 0
 104.364257812 601.42578125 61.02734375 677.489257812 62.796875 683.678710938 c 0
 63.6806640625 686.333007812 197.231445312 828.729492188 272.41015625 818.116210938 c 0
EndSplineSet
Validated: 524325
EndChar

StartChar: four
Encoding: 52 52 66
Width: 477
VWidth: 1175
Flags: W
VStem: 52.5371 110.325<578.885 802.499>
LayerCount: 2
Back
Fore
SplineSet
52.537109375 814.313476562 m 0
 55.1630859375 816.064453125 163.73828125 811.686523438 162.862304688 795.924804688 c 0
 162.862304688 792.423828125 124.3359375 466.697265625 137.469726562 464.946289062 c 0
 155.857421875 462.319335938 218.901367188 461.444335938 218.901367188 461.444335938 c 1
 221.528320312 471.951171875 l 2
 226.78125 493.840820312 236.4140625 649.69921875 243.41796875 656.704101562 c 0
 245.169921875 658.456054688 349.366210938 652.326171875 365.126953125 640.067382812 c 0
 367.75390625 638.31640625 339.735351562 457.06640625 345.864257812 450.936523438 c 0
 346.741210938 450.061523438 452.688476562 457.06640625 461.444335938 448.310546875 c 0
 470.201171875 439.553710938 466.697265625 424.668945312 437.802734375 309.087890625 c 0
 435.176757812 299.458007812 363.375 308.213867188 323.098632812 313.466796875 c 0
 311.715820312 315.21875 288.073242188 -5.25390625 265.30859375 -5.25390625 c 0
 264.43359375 -5.25390625 246.044921875 3.501953125 198.762695312 1.751953125 c 0
 132.215820312 0 157.609375 -31.5224609375 141.848632812 -17.51171875 c 0
 131.340820312 -7.8798828125 180.374023438 325.725585938 179.499023438 325.725585938 c 0
 131.340820312 326.600585938 23.6416015625 343.23828125 22.765625 344.112304688 c 0
 20.138671875 348.490234375 45.5322265625 809.060546875 52.537109375 814.313476562 c 0
EndSplineSet
Validated: 524321
EndChar

StartChar: five
Encoding: 53 53 67
Width: 502
VWidth: 1175
Flags: W
HStem: 691.64 127.361<192.138 403.632>
LayerCount: 2
Back
Fore
SplineSet
386.504882812 84.0224609375 m 0
 245.876953125 -7.9599609375 226.418945312 0.884765625 199.000976562 0 c 0
 56.6044921875 -6.19140625 27.41796875 12.3818359375 -7.9599609375 37.1474609375 c 0
 -8.8447265625 38.0302734375 9.7294921875 77.8310546875 59.2587890625 122.938476562 c 1
 72.5244140625 115.86328125 219.342773438 67.2177734375 307.788085938 165.392578125 c 0
 346.705078125 208.73046875 367.045898438 232.610351562 368.815429688 306.020507812 c 0
 370.584960938 352.895507812 375.891601562 508.55859375 177.774414062 474.950195312 c 0
 98.173828125 461.68359375 94.6357421875 442.224609375 86.67578125 442.224609375 c 0
 84.0224609375 442.224609375 79.6005859375 446.647460938 72.5244140625 453.72265625 c 1
 92.8671875 628.84375 82.2529296875 824.307617188 107.903320312 819.000976562 c 0
 321.939453125 776.546875 451.954101562 814.579101562 468.758789062 783.623046875 c 0
 469.642578125 782.73828125 482.91015625 727.901367188 444.877929688 691.639648438 c 1
 373.23828125 690.755859375 193.694335938 698.71484375 191.92578125 696.946289062 c 0
 184.849609375 689.87109375 175.120117188 579.314453125 176.005859375 575.776367188 c 0
 178.659179688 564.279296875 201.654296875 580.19921875 272.41015625 581.967773438 c 0
 465.220703125 587.274414062 479.372070312 462.56640625 487.33203125 394.46484375 c 0
 490.870117188 360.85546875 444.877929688 122.053710938 386.504882812 84.0224609375 c 0
EndSplineSet
Validated: 524321
EndChar

StartChar: six
Encoding: 54 54 68
Width: 519
VWidth: 1175
Flags: W
VStem: 370.129 116.459<273.96 441.256>
LayerCount: 2
Back
Fore
SplineSet
289.53125 673.370117188 m 0
 176.467540106 673.370117188 158.307617188 573.342737348 158.307617188 571.682617188 c 0
 158.307617188 566.857520798 290.711282968 615.679835904 363.004882812 592.720703125 c 0
 423.439851124 573.524793737 482.084918858 554.897409001 482.9921875 486.747070312 c 0
 483.105527234 478.219746652 485.363339821 483.126395076 486.587890625 444.646484375 c 0
 492.271052611 266.060536731 391.377031533 53.294799389 339.052734375 27.56640625 c 0
 336.260742188 26.1943359375 332.565429688 23.8037109375 330.970703125 22.337890625 c 0
 305.674874983 -0.898638450479 145.371246967 -5.08455274131 120.100585938 10.63671875 c 0
 77.1014414039 37.3922226676 46.3746693826 56.5114465057 31.271484375 135.322265625 c 0
 29.0458984375 146.930664062 26.341796875 158.522460938 25.2529296875 161.111328125 c 0
 16.7336548711 181.371862982 10.2739024167 313.630201151 15.3388671875 355.228515625 c 0
 22.360537061 412.899763908 40.4133852453 524.705923371 40.6298828125 526.422851562 c 0
 40.9654817823 529.089670066 84.7983560571 702.300109234 172.267578125 760.766601562 c 0
 196.218632876 776.778520983 258.095850704 810.689549166 344.930664062 804.265625 c 0
 417.669382559 798.886523416 511.716147684 684.28313816 505.985351562 679.982421875 c 0
 504.71875 679.033203125 503.633789062 676.456054688 503.633789062 674.3984375 c 0
 503.633789062 669.22669228 424.282226562 630.909338534 424.282226562 620.322265625 c 0
 424.282226562 618.874097809 373.115455526 673.370117188 289.53125 673.370117188 c 0
303.78515625 479.120117188 m 0
 267.515230226 495.543628218 248.944633606 503.952644499 223.69921875 494.651367188 c 0
 155.448959241 469.509594985 140.881403532 393.359904493 137.771484375 361.841796875 c 0
 114.724101904 128.413179544 173.498235912 129.953748731 263.375 132.309570312 c 1
 277.99609375 139.436523438 l 2
 341.605041078 170.441002349 357.611107657 240.737977672 370.12890625 295.71484375 c 0
 370.358597661 296.723674007 375.812032109 377.032775953 368.44921875 399.166015625 c 0
 355.10546875 439.283203125 333.921875 465.474609375 303.78515625 479.120117188 c 0
EndSplineSet
Validated: 524321
EndChar

StartChar: seven
Encoding: 55 55 69
Width: 551
VWidth: 1175
Flags: W
LayerCount: 2
Back
Fore
SplineSet
435.51953125 669.87890625 m 0
 427.665026414 679.517933743 81.1060072445 651.899133851 65.9765625 662.452148438 c 0
 54.8319588573 670.224250201 77.4035656706 806.76019281 60.029296875 807.62890625 c 1
 63.1630673058 811.17405508 380.615157913 786.206752649 532.827148438 788.969726562 c 1
 532.080078125 773.358398438 l 2
 529.384615085 716.966390752 536.123460007 656.881487946 529.555664062 653.598632812 c 0
 522.634238821 650.137136339 366.487492836 384.390142177 364.98046875 381.590820312 c 0
 363.640019123 379.101487628 243.149985418 156.927499933 224.430664062 136.271484375 c 0
 204.194288621 113.939468472 191.210560226 60.0017793089 167.002929688 23.201171875 c 0
 150.264000302 -2.26055764539 150.264000302 -2.26055764539 149.682617188 -2.0654296875 c 0
 148.588687976 -1.69820171807 39.3030243643 -2.1037035226 34.3076171875 -4.0615234375 c 0
 13.3947731344 -12.2567547671 13.292632949 -0.0261930037691 14.310546875 1.642578125 c 0
 16.1773053958 4.70412117371 20.4494979684 115.347286402 20.48046875 116.497070312 c 0
 23.0296761957 119.197459784 264.461914062 390.365438072 264.461914062 396.458984375 c 0
 264.461914062 399.684184556 443.432065273 660.164211481 435.51953125 669.87890625 c 0
EndSplineSet
Validated: 524321
EndChar

StartChar: eight
Encoding: 56 56 70
Width: 561
VWidth: 1175
Flags: W
LayerCount: 2
Back
Fore
SplineSet
230.278320312 778.256835938 m 0
 297.435415105 821.305033983 402.87189687 815.114146218 414.392578125 809.296875 c 0
 415.382359957 808.79727958 504.759800456 774.903882759 516.711914062 766.595703125 c 0
 531.11150091 756.586230481 549.187836476 710.643757257 536.056640625 660.892578125 c 0
 530.920991557 641.434746587 532.588073302 592.776346181 514.26171875 565.715820312 c 0
 477.350984042 511.197491308 429.510999693 503.51842822 428.451171875 503.51171875 c 0
 424.22265625 503.483398438 425.293945312 499.892578125 431.30859375 493.93359375 c 0
 462.790497336 462.745509742 462.790497336 462.745509742 491.125 353.859375 c 0
 522.765461451 232.346690738 472.44229576 106.174490137 459.255859375 83.8154296875 c 0
 412.381543752 4.32803514453 258.658082823 5.29720869252 257.521484375 7.1318359375 c 0
 256.255281886 9.17672924538 78.0306192023 -10.9250837337 32.1123046875 91.0322265625 c 0
 20.0418987119 117.833462988 2.59255810094 231.905771095 17.595703125 304.993164062 c 0
 23.032521218 331.485656852 40.1437500737 414.865144508 82.6259765625 449.625 c 0
 117.235385365 477.944968028 123.026543031 482.683719877 169.68359375 503.994140625 c 0
 174.495117188 506.192382812 178.404296875 508.483398438 178.404296875 509.10546875 c 0
 178.404296875 513.69447289 126.758268331 517.18057776 109.76953125 575.940429688 c 0
 78.5089276633 684.061374585 199.932488378 759.620919544 201.709960938 760.668945312 c 0
 207.599609375 764.140625 224.263671875 774.400390625 230.278320312 778.256835938 c 0
348.310546875 708.9140625 m 0
 339.042189091 707.06870624 339.14748072 720.364059524 313.276367188 713.197265625 c 0
 269.747397128 701.136042822 231.535307099 623.986459441 245.7578125 600.899414062 c 0
 267.524917787 565.575501557 417.113710001 584.676248806 408.924804688 655.48046875 c 0
 406.369140625 677.583007812 401.421875 692.53515625 394.771484375 698.254882812 c 0
 389.561523438 702.736328125 355.978515625 710.440429688 348.310546875 708.9140625 c 0
201.595703125 376.564453125 m 0
 197.994797842 368.128410007 173.097337339 358.169582978 145.295898438 246.50390625 c 0
 110.168678236 105.356348715 260.978065646 112.447766697 262.755859375 112.5625 c 0
 378 120 423 224 372.541992188 337.3203125 c 0
 338.229497385 414.380481981 298.69140625 400.535195656 298.69140625 399.569335938 c 0
 298.69140625 398.571498265 218.900901309 417.070376147 201.595703125 376.564453125 c 0
EndSplineSet
Validated: 524321
EndChar

StartChar: nine
Encoding: 57 57 71
Width: 540
VWidth: 1175
Flags: W
LayerCount: 2
Back
Fore
SplineSet
484.689453125 221.530273438 m 0
 481.203581639 188.660634105 435.000881785 95.8041221336 405.364257812 66.970703125 c 0
 309.297238715 -26.4749045363 220.122508492 8.94996965673 218.200195312 9.32421875 c 0
 112 30 125.866728543 40.0000008113 12.4951171875 96.4599609375 c 0
 8.1076276571 98.6449654636 4.40234375 103.522460938 4.40234375 108.966796875 c 0
 4.40234375 110.082994984 40.599065649 149.818436991 66.1376953125 201.959960938 c 0
 74.49609375 219.029296875 80.71484375 221.086914062 92.3935546875 210.651367188 c 0
 94.125865569 209.103038876 240.377130054 97.7091777656 312.370117188 135.868164062 c 0
 341.111093256 151.100211615 362.44322207 227.368814749 356.793945312 245.219726562 c 0
 356.141289287 247.282305579 238.448390316 200.401377432 141.98046875 270.853515625 c 0
 79.321022797 316.607146624 54.4306640625 414.721259256 54.4306640625 416.419921875 c 0
 54.4306640625 433.14230728 33.0886087789 513.810247808 47.8095703125 561.427734375 c 0
 76.7653314752 655.114234343 114.857375448 778.361219852 245.71484375 801.62890625 c 0
 246.617041731 801.789278537 322.248450757 803.989749899 337.237304688 797.107421875 c 0
 374.766275475 779.874951388 416.401777912 779.874669959 435.528320312 764.698242188 c 0
 436.597360158 763.850009406 498.426957095 709.604075719 509.025390625 649.712890625 c 0
 540.114604142 474.058834256 512.895646868 395.247250756 511.748046875 392.950195312 c 0
 504.968326134 379.396252387 484.872481883 223.256018548 484.689453125 221.530273438 c 0
311.487304688 353.958007812 m 0
 407 354 453 492.779296875 403.157226562 603.8046875 c 0
 402.699206423 604.824932993 383.067343755 656.974570931 323.700195312 682.502929688 c 0
 269.785892813 705.687498722 209.513004078 691.169007298 195.057617188 526.849609375 c 0
 189.414134264 462.734341694 196.734676647 353.907556782 311.487304688 353.958007812 c 0
EndSplineSet
Validated: 524321
EndChar
